<svg xmlns="http://www.w3.org/2000/svg" width="102" height="102" viewBox="0 0 102 102"><defs><mask id="wwpdb" width="2.07" height="2.07" x="-1.04" y="-1.04"><path fill="#fff" d="M16.7 16.7h68.6v68.6H16.7z"/><path d="M51 19c17.673 0 32 14.327 32 32 0 17.673-14.327 32-32 32-17.673 0-32-14.327-32-32 0-17.673 14.327-32 32-32z"/></mask><filter id="wwpda" width="126" height="126" x="-12" y="-12" filterUnits="userSpaceOnUse"><feOffset in="SourceGraphic" result="FeOffset1023Out"/><feGaussianBlur in="FeOffset1023Out" result="FeGaussianBlur1024Out" stdDeviation="7.4799999999999995 7.4799999999999995"/></filter></defs><g><g><g filter="url(#wwpda)"><path fill="none" stroke="#ccccdf" stroke-opacity=".5" stroke-width="4.6" d="M51 19c17.673 0 32 14.327 32 32 0 17.673-14.327 32-32 32-17.673 0-32-14.327-32-32 0-17.673 14.327-32 32-32z" mask="url(&quot;#wwpdb&quot;)"/><path fill="#ccccdf" fill-opacity=".5" d="M51 19c17.673 0 32 14.327 32 32 0 17.673-14.327 32-32 32-17.673 0-32-14.327-32-32 0-17.673 14.327-32 32-32z"/></g><path fill="#6e45e2" d="M51 19c17.673 0 32 14.327 32 32 0 17.673-14.327 32-32 32-17.673 0-32-14.327-32-32 0-17.673 14.327-32 32-32z"/><path fill="#fff" d="M51 19c17.673 0 32 14.327 32 32 0 17.673-14.327 32-32 32-17.673 0-32-14.327-32-32 0-17.673 14.327-32 32-32z"/></g></g></svg>